<svg width="86" height="86" xmlns="http://www.w3.org/2000/svg" xmlns:xlink="http://www.w3.org/1999/xlink" xml:space="preserve" overflow="hidden"><g transform="translate(-167 -177)"><path d="M209.194 211.758C206.685 211.758 204.715 213.729 204.715 216.238 204.715 218.746 206.685 220.717 209.194 220.717 211.702 220.717 213.673 218.746 213.673 216.238 213.673 216.238 213.673 216.238 213.673 216.238 213.673 213.729 211.702 211.758 209.194 211.758ZM209.194 218.925C207.671 218.925 206.506 217.76 206.506 216.238 206.506 214.715 207.671 213.55 209.194 213.55 210.717 213.55 211.881 214.715 211.881 216.238 211.881 217.76 210.717 218.925 209.194 218.925 209.194 218.925 209.194 218.925 209.194 218.925L209.194 218.925Z" stroke="#E97132" stroke-width="1.19444" fill="#E97132"/><path d="M217.525 212.027 218.331 209.608 215.823 207.1 213.404 207.906C212.956 207.727 212.508 207.548 212.06 207.369L210.896 205.129 207.402 205.129 206.238 207.369C205.79 207.548 205.342 207.727 204.894 207.906L202.475 207.1 199.967 209.608 200.773 212.027C200.504 212.475 200.325 212.923 200.235 213.371L197.996 214.535 197.996 218.029 200.235 219.194C200.415 219.642 200.594 220.09 200.773 220.538L199.967 222.956 202.565 225.465 204.983 224.658C205.431 224.837 205.879 225.017 206.327 225.196L207.492 227.435 210.985 227.435 212.15 225.196C212.598 225.017 213.046 224.837 213.404 224.658L215.823 225.465 218.331 222.956 217.525 220.538C217.704 220.09 217.973 219.642 218.062 219.194L220.302 218.029 220.302 214.535 218.062 213.371C217.973 212.923 217.794 212.475 217.525 212.027ZM218.51 216.865 216.54 217.85 216.45 218.208C216.271 218.835 216.002 219.373 215.733 219.91L215.554 220.269 216.271 222.419 215.375 223.315 213.315 222.598 212.956 222.777C212.419 223.046 211.881 223.315 211.344 223.404L210.896 223.583 209.91 225.554 208.567 225.554 207.581 223.583 207.223 223.494C206.685 223.315 206.058 223.135 205.61 222.777L205.252 222.598 203.102 223.315 202.117 222.329 202.833 220.269 202.654 219.91C202.385 219.373 202.117 218.835 201.938 218.298L201.848 217.94 199.877 216.954 199.877 215.7 201.848 214.715 201.938 214.356C202.117 213.819 202.296 213.192 202.654 212.744L202.833 212.385 202.117 210.146 203.012 209.16 205.163 209.877 205.521 209.698C206.058 209.429 206.596 209.16 207.223 208.981L207.581 208.892 208.567 206.921 209.821 206.921 210.806 208.892 211.165 208.981C211.702 209.16 212.329 209.34 212.777 209.698L213.135 209.877 215.285 209.16 216.181 210.056 215.465 212.206 215.644 212.565C215.913 213.102 216.181 213.64 216.36 214.177L216.45 214.535 218.421 215.521 218.51 216.865Z" stroke="#E97132" stroke-width="1.19444" fill="#E97132"/><path d="M231.59 216.865 231.59 216.058C231.59 203.696 221.556 193.663 209.194 193.663 196.831 193.663 186.798 203.696 186.798 216.058L186.798 216.865C186.887 219.552 187.425 222.15 188.321 224.658 189.217 226.988 190.56 229.137 192.173 231.019 194.233 233.258 196.473 237.558 197.458 239.529 197.727 240.067 198.354 240.515 198.981 240.515L219.317 240.515C219.944 240.515 220.571 240.156 220.84 239.529 221.825 237.558 224.065 233.258 226.035 231.019 227.738 229.137 228.992 226.988 229.887 224.658 230.962 222.15 231.5 219.462 231.59 216.865ZM229.798 216.865C229.708 219.283 229.26 221.702 228.365 224.031 227.558 226.181 226.304 228.152 224.781 229.854 222.631 232.183 220.392 236.394 219.317 238.723L199.071 238.723C197.906 236.394 195.667 232.183 193.606 229.854 192.083 228.152 190.919 226.181 190.023 224.031 189.127 221.792 188.679 219.373 188.59 216.865L188.59 216.148C188.59 204.771 197.817 195.544 209.194 195.544 220.571 195.544 229.798 204.771 229.798 216.148L229.798 216.148 229.798 216.865Z" stroke="#E97132" stroke-width="1.19444" fill="#E97132"/><path d="M219.137 245.89 199.429 245.89C198.892 245.89 198.533 246.248 198.533 246.785 198.533 247.323 198.892 247.681 199.429 247.681L219.137 247.681C219.675 247.681 220.033 247.323 220.033 246.785 220.033 246.248 219.675 245.89 219.137 245.89Z" stroke="#E97132" stroke-width="1.19444" fill="#E97132"/><path d="M209.462 190.438C210 190.438 210.358 190.079 210.358 189.542L210.358 181.479C210.358 180.942 210 180.583 209.462 180.583 208.925 180.583 208.567 180.942 208.567 181.479L208.567 189.542C208.567 190.079 208.925 190.438 209.462 190.438Z" stroke="#E97132" stroke-width="1.19444" fill="#E97132"/><path d="M182.319 215.521 174.256 215.521C173.719 215.521 173.36 215.879 173.36 216.417 173.36 216.954 173.719 217.312 174.256 217.312L182.319 217.312C182.856 217.312 183.215 216.954 183.215 216.417 183.215 215.879 182.767 215.521 182.319 215.521Z" stroke="#E97132" stroke-width="1.19444" fill="#E97132"/><path d="M244.131 215.521 236.069 215.521C235.531 215.521 235.173 215.879 235.173 216.417 235.173 216.954 235.531 217.312 236.069 217.312L244.131 217.312C244.669 217.312 245.027 216.954 245.027 216.417 245.027 215.879 244.579 215.521 244.131 215.521Z" stroke="#E97132" stroke-width="1.19444" fill="#E97132"/><path d="M189.575 198.052C189.933 198.41 190.471 198.41 190.829 198.052 191.188 197.694 191.188 197.156 190.829 196.798L185.096 191.065C184.738 190.706 184.2 190.706 183.842 190.975 183.483 191.333 183.483 191.871 183.752 192.229 183.752 192.229 183.752 192.229 183.842 192.319L189.575 198.052Z" stroke="#E97132" stroke-width="1.19444" fill="#E97132"/><path d="M228.812 234.781C228.454 234.423 227.917 234.423 227.558 234.781 227.2 235.14 227.2 235.677 227.558 236.035 227.558 236.035 227.558 236.035 227.558 236.035L233.292 241.769C233.65 242.127 234.188 242.127 234.546 241.769 234.904 241.41 234.904 240.873 234.546 240.515L228.812 234.781Z" stroke="#E97132" stroke-width="1.19444" fill="#E97132"/><path d="M233.113 191.154 227.558 196.708C227.2 197.067 227.2 197.604 227.469 197.962 227.827 198.321 228.365 198.321 228.723 198.052 228.723 198.052 228.723 198.052 228.812 197.962L234.546 192.229C234.904 191.871 234.904 191.333 234.546 190.975 234.188 190.617 233.65 190.617 233.292 190.975L233.113 191.154Z" stroke="#E97132" stroke-width="1.19444" fill="#E97132"/><path d="M189.575 234.781 183.842 240.515C183.483 240.873 183.483 241.41 183.842 241.769 184.2 242.127 184.738 242.127 185.096 241.769 185.096 241.769 185.096 241.769 185.096 241.769L190.829 236.035C191.188 235.677 191.188 235.14 190.829 234.781 190.471 234.423 189.933 234.423 189.575 234.781L189.575 234.781Z" stroke="#E97132" stroke-width="1.19444" fill="#E97132"/><path d="M209.194 258.521C206.506 258.521 204.267 256.46 203.998 253.773 203.998 253.235 204.356 252.877 204.804 252.788 204.804 252.788 204.894 252.788 204.894 252.788L213.494 252.788C214.031 252.788 214.39 253.146 214.39 253.683 214.39 253.683 214.39 253.773 214.39 253.773 214.121 256.46 211.881 258.521 209.194 258.521ZM206.058 254.579C206.775 256.281 208.746 257.177 210.448 256.55 211.344 256.192 212.06 255.475 212.419 254.579L206.058 254.579Z" stroke="#E97132" stroke-width="1.19444" fill="#E97132"/></g></svg>